<svg id="Calque_1" data-name="Calque 1" xmlns="http://www.w3.org/2000/svg" viewBox="0 0 2048 2048"><defs><style>.cls-1{fill:#ff7518;}</style></defs><title>UnprotectOffice</title><polygon class="cls-1" points="854.634 1706.66 711.318 1769.359 1120.442 1818.593 1120.442 1277.803 854.634 1339.823 854.634 1706.66"/><path class="cls-1" d="M1878.7994,979.3306l-1282.2031.0054V705.348c0-174.2732,101.0809-337.1221,262.8084-402.0481,321.4771-129.0581,627.601,104.17,627.601,408.9049h267.1258c0-483.3-481.2464-854.1848-990.6534-659.539-265.1574,101.3174-433.9958,363.7647-434.0017,647.62L329.4707,979.33l-160.2754,0V2047.833H1878.8048Zm-528.7967,871.0739-229.561,69.1982L698.0362,1767.76l11.6117,1.3973V1304.9292L1124.53,1151.6027l225.4725,72.1541Z"/></svg>