<!-- Created with Inkscape (http://www.inkscape.org/) -->
<svg width="26.458mm" height="30.297mm" version="1.1" viewBox="0 0 26.458 30.297" xmlns="http://www.w3.org/2000/svg">
 <g transform="translate(-46.166 -202.58)">
  <g transform="matrix(.51813 0 0 .51813 20.532 112.83)">
   <path d="m56.296 227.28-.07286-4.1672-6.4823-.75237v-27.864l6.4823-.75238.13858-20.241h31.086l12.828 12.836v45.107h-43.907z" style="fill:#ffffff;stroke-width:.26458"/>
   <g transform="translate(-13.727 -28.592)">
    <g transform="translate(21.171 76.678)">
     <path d="m48.642 179.37.01895-5.579.70865 1.3666c.17274-.67082.4461-2.383.2642-2.3096-.24235.0978-.19806 3.5814-.19806 6.2795v3.6821h42.863v-43.921l-4.7656-.0431s.0031-.0331.0031-.34348c0-.30279-.0026-.4343-.0026-.4343l4.6367-.0333-6.0859-6.0227-5.9566-5.9509-.03791 4.868s-.03482.0224-.35897.0224c-.29398 0-.39688.30868-.39688 1.1906 0 .88195.10289 1.1906.39688 1.1906.30868 0 .36003-.62662.36003-.62662l-.0097 3.8108-.15966 2.186-.58755.18611h-25.135v-2.3812h25.135v-3.175h-25.135v-2.3812h25.135v-5.0271h-29.898v9.6352c0 7.4606-.05803 13.835.19806 13.938.1819.0734.13597-4.0269-.2642-4.0154l-.67074 1.6888-.05686-11.854v-10.186h31.622l12.828 12.836v45.637h-44.45zm5.5562-2.4951c0-.64422.01725-2.0593-.3114-2.1409-.25466-.0633-.25746 1.0525.1791 1.1132 2.8027-1.2891 8.4024-.0169 8.6768-.016.2018 8e-4-.29063-.29393.27387-.31843l2.5587-.11105h21.96v2.3812h-33.337v-.90764zm10.903-5.8772-.18953-1.1717 11.644.0189h10.98v2.3812h-10.98l-11.359-.0379zm.47383-5.5183v-1.1906h21.96v2.3812h-21.96zm0-5.5562v-1.1906h21.96v2.3812h-21.96zm0-5.5562v-1.1906h21.96v2.3812h-21.96zm0-5.5562v-1.1906h21.96v2.3812h-21.96zm-11.384-4.3751s.007-.19694.007-1.1995v-1.1722h33.337v2.3812h-10.98c-10.804 0-14.244.12278-14.244-.39739 0-.29104-.18938.211-.37128.21116-.30474.00027-3.8311.1172-3.8311.1172l-2.4037.0468z" style="fill:#999898;stroke-width:.26458"/>
     <path d="m79.333 137.7v-1.1906l.74729.009-.01099 1.5637 7.4632-.0127s.0026.0901.0026.42399c0 .33571-.0031.35379-.0031.35379l-8.199.0431zm0-4.3656v-2.3812l.75584-.0224-.01326 2.409z" style="fill:#676566;stroke-width:.26458"/>
     <path d="m60.019 176.59c-9.3812-1.225-17.979-2.2689-17.979-2.2689s-.01287-3.6996-.01287-13.994c0-11.069.04414-13.937.04414-13.937s21.001-2.6487 22.512-2.8868l.99219-.15642v16.957c0 15.985-.0081 16.943-.0081 16.943s-3.0015-.32385-5.5481-.65638zm-2.1117-11.964c.16891-.83675.69459-3.3966 1.1682-5.6885l.86108-4.1672h-1.1494c-.63218 0-1.2158-.0305-1.2158-.0305s-.19519 1.9885-.51487 3.9694l-.58124 3.6017-.47228-2.5135c-.25976-1.3824-.60327-3.145-.76337-3.9168l-.2579-1.2041-1.1649-.0193-1.0654-.0193-1.5796 7.6729-.32921-1.9844c-.18107-1.0914-.46338-2.788-.62736-3.7703l-.29815-1.7859h-1.0344c-1.2958 0-1.1139.0123-1.1139.0123l2.0855 10.968 2.418.1582.60663-3.1218c.33365-1.717.68273-3.3367.77574-3.5993.09978-.28173.42315.85721.78876 2.7781.34081 1.7906.85801 4.0173.85801 4.0173s.55461.16434 1.2686.16434h1.0303l.3071-1.5214z" style="fill:#285497;stroke-width:.26458"/>
    </g>
   </g>
  </g>
 </g>
</svg>
